<?xml version="1.0" encoding="UTF-8" standalone="no"?> <svg xmlns="http://www.w3.org/2000/svg" xmlns:xlink="http://www.w3.org/1999/xlink" xmlns:serif="http://www.serif.com/" width="100%" height="100%" viewBox="0 0 419 300" version="1.1" xml:space="preserve" style="fill-rule:evenodd;clip-rule:evenodd;stroke-linejoin:round;stroke-miterlimit:2;"><rect id="Artboard3" x="0" y="0" width="418.7" height="300" style="fill:none;"></rect><clipPath id="_clip1"><rect x="0" y="0" width="418.7" height="300"></rect></clipPath><g clip-path="url(#_clip1)"><rect id="Artboard2" x="0" y="-70.623" width="595.641" height="595.641" style="fill:none;"></rect><g><g><path d="M391.586,20.327l4.519,0c2.16,0 3.636,-0.323 4.422,-0.969c0.786,-0.641 1.179,-1.498 1.179,-2.557c0,-0.683 -0.192,-1.295 -0.567,-1.837c-0.381,-0.538 -0.907,-0.937 -1.579,-1.208c-0.675,-0.265 -1.915,-0.394 -3.739,-0.394l-4.235,0l-0,6.965Zm-3.726,12.987l0,-23.081l7.935,-0c2.709,-0 4.674,0.213 5.882,0.638c1.212,0.426 2.181,1.172 2.899,2.236c0.72,1.059 1.077,2.186 1.077,3.381c-0,1.69 -0.599,3.154 -1.8,4.409c-1.203,1.246 -2.8,1.95 -4.79,2.1c0.812,0.341 1.467,0.751 1.96,1.219c0.928,0.911 2.068,2.438 3.416,4.579l2.809,4.519l-4.551,-0l-2.044,-3.636c-1.611,-2.864 -2.909,-4.65 -3.891,-5.373c-0.683,-0.531 -1.679,-0.796 -2.993,-0.796l-2.183,-0l-0,9.805l-3.726,-0Zm9.414,-29.763c-3.016,0 -5.951,0.776 -8.804,2.32c-2.851,1.542 -5.082,3.752 -6.692,6.621c-1.616,2.872 -2.415,5.859 -2.415,8.973c0,3.085 0.791,6.045 2.373,8.88c1.581,2.833 3.796,5.04 6.639,6.624c2.838,1.584 5.804,2.373 8.899,2.373c3.082,-0 6.051,-0.789 8.891,-2.373c2.848,-1.584 5.055,-3.791 6.627,-6.624c1.571,-2.835 2.362,-5.795 2.362,-8.88c-0,-3.114 -0.8,-6.101 -2.402,-8.973c-1.603,-2.869 -3.836,-5.079 -6.7,-6.621c-2.856,-1.544 -5.785,-2.32 -8.778,-2.32m0,-3.55c3.597,0 7.113,0.923 10.544,2.77c3.426,1.849 6.103,4.49 8.016,7.932c1.913,3.437 2.869,7.023 2.869,10.762c-0,3.691 -0.941,7.243 -2.822,10.659c-1.889,3.408 -4.535,6.056 -7.935,7.942c-3.402,1.887 -6.962,2.831 -10.672,2.831c-3.715,-0 -7.275,-0.944 -10.678,-2.831c-3.402,-1.886 -6.048,-4.534 -7.945,-7.942c-1.897,-3.416 -2.843,-6.968 -2.843,-10.659c0,-3.739 0.959,-7.325 2.885,-10.762c1.924,-3.442 4.598,-6.083 8.035,-7.932c3.426,-1.847 6.942,-2.77 10.546,-2.77" style="fill:#feffff;fill-rule:nonzero;"></path><path d="M363.552,41.962c-0,1.145 -0.928,2.068 -2.065,2.068l-39.895,-0c-1.135,-0 -2.075,-0.923 -2.075,-2.068l-0,-39.892c-0,-1.145 0.94,-2.07 2.075,-2.07l39.895,0c1.137,0 2.065,0.925 2.065,2.07l-0,39.892Z" style="fill:#feffff;fill-rule:nonzero;"></path><path d="M363.552,105.953c-0,1.146 -0.928,2.068 -2.065,2.068l-39.895,-0c-1.135,-0 -2.075,-0.922 -2.075,-2.068l-0,-39.889c-0,-1.143 0.94,-2.067 2.075,-2.067l39.895,-0c1.137,-0 2.065,0.924 2.065,2.067l-0,39.889Z" style="fill:#feffff;fill-rule:nonzero;"></path><path d="M363.552,169.944c-0,1.143 -0.928,2.073 -2.065,2.073l-39.895,-0c-1.135,-0 -2.075,-0.93 -2.075,-2.073l-0,-39.886c-0,-1.146 0.94,-2.071 2.075,-2.071l39.895,0c1.137,0 2.065,0.925 2.065,2.071l-0,39.886Z" style="fill:#feffff;fill-rule:nonzero;"></path><path d="M363.552,233.936c-0,1.142 -0.928,2.073 -2.065,2.073l-39.895,-0c-1.135,-0 -2.075,-0.931 -2.075,-2.073l-0,-39.889c-0,-1.143 0.94,-2.068 2.075,-2.068l39.895,0c1.137,0 2.065,0.925 2.065,2.068l-0,39.889Z" style="fill:#feffff;fill-rule:nonzero;"></path><path d="M363.552,297.929c-0,1.146 -0.928,2.071 -2.065,2.071l-39.895,0c-1.135,0 -2.075,-0.925 -2.075,-2.071l-0,-39.891c-0,-1.143 0.94,-2.07 2.075,-2.07l39.895,-0c1.137,-0 2.065,0.927 2.065,2.07l-0,39.891Z" style="fill:#feffff;fill-rule:nonzero;"></path><path d="M74.019,118.762c1.61,-0.662 2.908,-1.745 3.92,-3.208c0.841,-1.169 1.395,-3.448 1.715,-6.789c0.328,-3.345 0.47,-9.934 0.47,-19.74l0,-4.39c0,-8.046 -0.142,-13.497 -0.422,-16.303c-0.308,-2.827 -0.865,-4.784 -1.661,-5.83c-0.862,-1.385 -2.149,-2.409 -3.849,-3.061c-1.702,-0.676 -3.87,-1.022 -6.503,-1.022c-0.783,-0 -1.392,-0 -1.849,0.023c-0.426,0.024 -0.807,0.063 -1.156,0.116l-0,61.087c0.452,0.081 0.896,0.128 1.311,0.128l1.957,0c2.415,0 4.453,-0.352 6.067,-1.011" style="fill:#feffff;fill-rule:nonzero;"></path><path d="M233.298,261.12l-7.275,-22.238l-7.795,22.238l-19.283,0l16.522,-37.957l-15.384,-39.159l18.796,0l7.144,22.895l7.065,-22.895l19.183,0l-15.769,39.159l16.174,37.957l-19.378,0Zm-54.436,0l-7.265,-22.238l-7.811,22.238l-19.272,0l16.521,-37.957l-15.388,-39.159l18.79,0l7.16,22.895l7.07,-22.895l19.178,0l-15.77,39.159l16.169,37.957l-19.382,0Zm-39.955,-62.14l-24.014,-0l-0,14.164l22.17,0l0,15.465l-22.17,-0l-0,16.831l24.014,0l-0,15.68l-41.946,0l-0,-77.116l41.946,0l-0,14.976Zm-49.298,-0l-15.183,-0l-0,62.14l-18.079,0l-0,-62.14l-14.422,-0l0,-14.976l47.684,0l0,14.976Zm-47.684,-41.298l210.138,0l0,5.936l-210.138,0l0,-5.936Zm0,-117.173l24.952,0c9.136,0 15.891,0.794 20.281,2.368c4.403,1.563 7.901,4.264 10.507,8.06c1.997,2.985 3.416,6.821 4.254,11.543c0.846,4.707 1.263,13.507 1.263,26.415c0,12.911 -0.417,21.713 -1.263,26.408c-0.838,4.679 -2.257,8.539 -4.254,11.56c-2.606,3.8 -6.104,6.5 -10.507,8.064c-4.39,1.572 -11.145,2.37 -20.281,2.37l-24.952,0l0,-96.788Zm75.033,0.006l22.63,-0l-0,96.782l-22.63,0l0,-96.782Zm37.711,23.636c0.88,-5.886 2.22,-10.276 4.069,-13.187c2.683,-4.251 6.22,-7.431 10.639,-9.577c4.419,-2.123 9.676,-3.197 15.746,-3.197c9.529,-0 16.689,2.603 21.489,7.774c4.837,5.168 7.223,12.884 7.223,23.15c0,0.373 -0.003,0.932 -0.058,1.723c-0.047,0.776 -0.066,1.398 -0.066,1.847l-21.494,0l-0,-1.198c-0,-5.56 -0.589,-9.547 -1.782,-11.928c-1.195,-2.38 -3.129,-3.581 -5.804,-3.581c-3.207,-0 -5.399,1.463 -6.583,4.398c-1.175,2.929 -1.785,9.779 -1.785,20.546l0,16.214c0,10.751 0.557,17.543 1.697,20.354c1.125,2.812 3.23,4.215 6.278,4.215c3.055,-0 5.278,-1.254 6.649,-3.718c1.404,-2.46 2.095,-6.479 2.095,-11.986c-0,-1.264 -0.029,-2.231 -0.05,-2.896c-0.017,-0.667 -0.045,-1.327 -0.09,-1.96l-8.857,-0l0,-16.902l30.738,0l-0,53.055l-15.601,0l-1.012,-6.038c-2.252,2.596 -4.737,4.53 -7.499,5.822c-2.748,1.261 -5.853,1.905 -9.343,1.905c-3.904,0 -7.558,-0.73 -10.885,-2.212c-3.321,-1.453 -6.214,-3.586 -8.678,-6.332c-3.082,-3.399 -5.247,-7.966 -6.479,-13.696c-1.261,-5.757 -1.897,-15.463 -1.897,-29.159c0,-9.751 0.462,-17.583 1.34,-23.436m74.77,-23.636l22.624,-0l0,96.782l-22.624,0l0,-96.782Zm56.339,-40.514l-271.677,-0c-7.787,-0 -14.101,6.313 -14.101,14.103l0,271.677c0,7.788 6.314,14.101 14.101,14.101l271.677,-0c7.79,-0 14.104,-6.313 14.104,-14.101l-0,-271.677c-0,-7.79 -6.314,-14.103 -14.104,-14.103" style="fill:#feffff;fill-rule:nonzero;"></path></g></g></g></svg> 